<svg xmlns="http://www.w3.org/2000/svg" width="512" height="512" viewBox="0 0 512 512" version="1.1">
	<path d="M 45 11.271 C 31.818 15.791, 21.199 24.522, 15.207 35.763 C 8.864 47.663, 9.275 33.445, 8.872 255 C 8.573 419.498, 8.750 458.438, 9.812 462.499 C 14.563 480.659, 29.678 496.143, 47.500 501.107 C 51.698 502.277, 85.209 502.500, 256.500 502.500 L 460.500 502.500 468.305 499.628 C 485.020 493.479, 497.056 480.310, 501.527 463.280 C 502.859 458.207, 503.051 432.843, 503.092 255.969 C 503.128 102.657, 502.852 53.249, 501.940 49.469 C 498.143 33.725, 485.972 19.112, 471.500 12.922 L 463.500 9.500 257.500 9.271 L 51.500 9.042 45 11.271 M 247.090 41.488 C 237.911 43.192, 228.263 47.993, 221.383 54.281 C 216.353 58.878, 209.544 67.878, 210.428 68.761 C 210.661 68.994, 213.254 68.487, 216.190 67.633 C 238.847 61.047, 275.368 61.004, 297.432 67.539 C 300.144 68.343, 302.743 69, 303.207 69 C 304.769 69, 301.113 63.285, 295.907 57.588 C 283.769 44.308, 265.088 38.147, 247.090 41.488 M 231.500 72.609 C 216.720 75.251, 206.242 79.235, 204.919 82.714 C 203.411 86.679, 203.755 87.133, 207.750 86.448 L 211.500 85.805 207.750 88.438 C 205.161 90.256, 204 91.828, 204 93.511 C 204 95.754, 204.220 95.867, 206.727 94.914 C 210.677 93.412, 222.680 90.990, 225.815 91.062 C 227.909 91.110, 227.431 91.480, 223.639 92.743 C 220.966 93.633, 215.566 95.969, 211.639 97.933 C 205.329 101.089, 204.540 101.794, 204.848 104.002 C 205.312 107.339, 205.281 107.327, 209.255 105.667 C 214.765 103.365, 229.038 100.103, 236.735 99.388 C 243.119 98.795, 244.201 98.360, 248.043 94.849 C 255.016 88.474, 258.984 88.474, 265.957 94.849 C 269.799 98.360, 270.881 98.795, 277.265 99.388 C 284.962 100.103, 299.235 103.365, 304.745 105.667 C 308.719 107.327, 308.688 107.339, 309.152 104.002 C 309.460 101.794, 308.671 101.089, 302.361 97.933 C 298.434 95.969, 293.034 93.633, 290.361 92.743 C 286.569 91.480, 286.091 91.110, 288.185 91.062 C 291.320 90.990, 303.323 93.412, 307.273 94.914 C 309.780 95.867, 310 95.754, 310 93.511 C 310 91.828, 308.839 90.256, 306.250 88.438 L 302.500 85.805 306.250 86.448 C 310.245 87.133, 310.589 86.679, 309.081 82.714 C 307.713 79.115, 297.162 75.201, 281.619 72.528 C 270.316 70.583, 242.582 70.629, 231.500 72.609 M 252.397 102.073 C 248.441 106.030, 248.026 106.186, 237.912 107.538 C 226.403 109.076, 217.436 111.171, 211.796 113.640 L 208.093 115.262 209.945 118.881 C 213.350 125.538, 219.937 132.744, 227.071 137.618 L 234.140 142.448 233.445 153.474 C 233.064 159.538, 232.580 164.690, 232.370 164.922 C 231.862 165.485, 217.908 163.360, 205.500 160.832 C 169.467 153.489, 129.073 135.436, 93 110.553 L 83.500 104 83.238 141.500 C 83.094 162.125, 83.094 195.875, 83.238 216.500 L 83.500 254 93 247.447 C 127.291 223.794, 164.519 206.685, 199.500 198.505 C 207.663 196.596, 227.829 193, 230.369 193 C 230.716 193, 231 196.101, 231 199.892 C 231 206.581, 230.919 206.803, 228.250 207.450 C 226.738 207.817, 219.935 209.743, 213.133 211.730 L 200.765 215.342 201.302 296.421 C 201.816 373.910, 201.929 377.811, 203.860 384.522 C 209.786 405.117, 224.331 430.166, 246.671 458.250 C 251.811 464.712, 256.351 469.991, 256.759 469.980 C 257.929 469.949, 275.756 447.048, 283.812 435.228 C 297.377 415.326, 306.731 396.829, 310.439 382.580 C 311.737 377.592, 312.079 363.894, 312.612 295.551 L 313.244 214.443 298.122 210.068 L 283 205.694 283 199.347 C 283 195.856, 283.337 193, 283.750 193 C 287.090 193.001, 310.869 197.517, 320.194 199.921 C 352.686 208.299, 389.649 225.740, 421 247.488 L 430.500 254.078 430.762 216.539 C 430.906 195.893, 430.906 162.125, 430.762 141.500 L 430.500 104 421 110.553 C 384.927 135.436, 344.533 153.489, 308.500 160.832 C 296.092 163.360, 282.138 165.485, 281.630 164.922 C 281.420 164.690, 280.936 159.538, 280.555 153.474 L 279.860 142.448 286.929 137.618 C 294.063 132.744, 300.650 125.538, 304.055 118.881 L 305.907 115.262 302.204 113.640 C 296.568 111.173, 287.599 109.076, 276.116 107.541 C 266.058 106.197, 265.602 106.026, 261.578 102.077 C 259.294 99.835, 257.210 98, 256.947 98 C 256.685 98, 254.638 99.833, 252.397 102.073 M 258.665 295.150 C 257.655 413.921, 257.761 440.244, 259.250 439.759 C 261.423 439.051, 281.281 408.670, 286.634 397.865 C 296.819 377.305, 296.175 383.892, 296.093 301.060 C 296.053 261.218, 295.678 228.296, 295.260 227.900 C 294.842 227.504, 287.300 225.097, 278.500 222.552 C 269.700 220.006, 261.787 217.709, 260.915 217.446 C 259.481 217.015, 259.266 224.446, 258.665 295.150 M 94.372 283.750 C 81.928 308.913, 68.316 336.355, 64.123 344.734 L 56.500 359.967 51.642 359.984 C 46.848 360, 46.792 360.037, 47.453 362.750 C 48.890 368.654, 56.533 379.729, 64.901 388.034 C 74.320 397.381, 85.448 403.955, 98 407.588 C 107.165 410.240, 128.835 410.240, 138 407.588 C 153.623 403.066, 170.201 391.685, 179.343 379.204 C 183.024 374.179, 189 362.991, 189 361.126 C 189 360.451, 187.096 359.994, 184.250 359.985 L 179.500 359.970 172.908 346.735 C 169.282 339.456, 155.620 312.012, 142.547 285.750 C 129.474 259.488, 118.378 238, 117.888 238 C 117.398 238, 106.816 258.587, 94.372 283.750 M 383.144 262.065 C 376.349 275.296, 371.088 286.422, 371.455 286.788 C 371.821 287.154, 374.231 286.339, 376.810 284.977 C 381.212 282.652, 381.930 281.655, 388.500 268.752 C 392.350 261.190, 395.747 255.003, 396.050 255.002 C 396.352 255.001, 398.375 258.642, 400.545 263.093 C 402.715 267.544, 404.817 271.387, 405.216 271.634 C 405.982 272.107, 412 269.294, 412 268.462 C 412 267.199, 396.895 238, 396.244 238.004 C 395.835 238.006, 389.940 248.833, 383.144 262.065 M 104.769 280.250 C 97.778 294.137, 85.711 317.762, 77.955 332.750 L 63.853 360 117.979 360 L 172.105 360 164.621 345.750 C 160.505 337.913, 148.447 314.288, 137.825 293.250 C 127.203 272.212, 118.280 255, 117.997 255 C 117.714 255, 111.761 266.363, 104.769 280.250 M 360.274 310.250 C 359.739 310.938, 353.746 322.413, 346.954 335.750 L 334.606 360 329.803 360 C 327.161 360, 325 360.395, 325 360.878 C 325 365.937, 335.290 381.206, 344.489 389.796 C 358.010 402.423, 373.497 408.779, 393.001 409.707 C 402.779 410.172, 405.851 409.919, 413.501 408.020 C 427.613 404.518, 438.841 398.213, 449.099 388.034 C 457.467 379.729, 465.110 368.654, 466.547 362.750 C 467.208 360.036, 467.154 360, 462.358 359.998 L 457.500 359.995 444.633 334.921 C 437.556 321.130, 431.176 309.621, 430.455 309.344 C 429.735 309.068, 428.238 308.990, 427.128 309.171 C 425.317 309.466, 426.376 312.081, 437.485 334.750 L 449.859 360 395.925 360 L 341.990 360 351.865 340.250 C 357.297 329.387, 362.752 318.250, 363.989 315.500 C 365.226 312.750, 366.435 310.163, 366.678 309.750 C 367.438 308.456, 361.295 308.935, 360.274 310.250" stroke="none" fill="black" fill-rule="evenodd"/>
</svg>